<svg xmlns="http://www.w3.org/2000/svg" viewbox="0 0 233 219" width="233" height="219"><defs></defs><g transform="matrix(1,0,0,1,-474.897121519,-418.293878688)">
<g transform="matrix(1,0,0,1,-36,7)">
	<g>
		<path d="" transform="" fill="#ffffff" stroke="#000000" stroke-width="2"/>
		<path d="" transform="" fill="#ffffff" stroke="#000000" stroke-width="2"/>
		<g>
			<g>
				<g>
					<path d="M-96.129997,84.470001C-98.582001,81.853996 -98.654999,81.740997 -98.213997,81.246002 C-97.515404,80.461998 -67.713997,53.186001 -67.293999,52.936001 C-66.923897,52.722301 -63.271000,54.486000 -62.472000,55.264000 C-62.166000,55.562199 -64.540001,58.099998 -77.491997,71.314003 C-85.953003,79.948997 -93.042000,87.054001 -93.232002,87.094002 C-93.428596,87.137497 -94.733002,85.953003 -96.129997,84.461998 C-96.129997,84.461998 -96.129997,84.470001 -96.129997,84.470001 ZM-102.813004,77.518700C-104.135002,76.189697 -104.971001,75.145699 -104.887001,74.928703 C-104.736298,74.536003 -87.607002,60.688702 -87.287003,60.698700 C-86.892197,60.713501 -82.861000,63.776699 -82.861000,64.061699 C-82.861000,64.361801 -100.081001,79.741699 -100.420998,79.741699 C-100.521202,79.741699 -101.598999,78.739700 -102.817001,77.515701 C-102.817001,77.515701 -102.813004,77.518700 -102.813004,77.518700 ZM-109.052002,71.129097C-110.086998,69.973099 -110.737000,69.039101 -110.597000,68.909103 C-109.875099,68.235199 -102.427002,63.070099 -102.181000,63.073101 C-101.780602,63.078098 -98.185997,66.160103 -98.185997,66.499100 C-98.185997,66.915298 -106.251999,73.124100 -106.792999,73.124100 C-107.053497,73.124100 -108.070000,72.226303 -109.052002,71.129097 C-109.052002,71.129097 -109.052002,71.129097 -109.052002,71.129097 ZM-114.184998,65.861099C-115.667000,64.362099 -115.844002,64.082100 -115.508003,63.770100 C-115.025703,63.321999 -91.348000,48.040100 -90.867996,47.860100 C-90.489197,47.722599 -87.209999,49.708099 -87.209999,50.075100 C-87.209999,50.337299 -111.480003,67.335098 -112.070000,67.485100 C-112.304604,67.545303 -113.192001,66.862900 -114.184998,65.858101 C-114.184998,65.858101 -114.184998,65.861099 -114.184998,65.861099 ZM-98.394997,63.447102C-99.372498,62.635700 -100.167000,61.832100 -100.161003,61.661098 C-100.154999,61.490200 -99.291298,60.747501 -98.242996,60.010101 C-97.194000,59.273201 -92.492996,55.910099 -87.792999,52.536098 C-83.096001,49.162102 -79.058998,46.401100 -78.822998,46.401100 C-78.190804,46.401100 -74.989998,48.251099 -75.093002,48.558102 C-75.241402,49.003300 -95.782997,64.918098 -96.212997,64.918098 C-96.435997,64.920097 -97.417999,64.257599 -98.396004,63.446098 C-98.396004,63.446098 -98.394997,63.447102 -98.394997,63.447102 ZM-118.955002,61.064098C-120.122002,59.830101 -120.291000,59.532101 -119.986000,59.254101 C-119.721603,59.013100 -105.056000,50.350101 -103.286003,49.388100 C-102.992996,49.229099 -99.884003,51.472099 -99.983002,51.770100 C-100.111603,52.155998 -116.653000,62.540100 -117.142998,62.540100 C-117.376602,62.540310 -118.195999,61.875999 -118.963997,61.064098 C-118.963997,61.064098 -118.955002,61.064098 -118.955002,61.064098 ZM-83.495003,61.162800C-84.568001,60.392700 -85.487999,59.637798 -85.539001,59.485802 C-85.611198,59.268600 -75.882004,51.182800 -73.679001,49.625801 C-73.249901,49.323101 -72.912399,49.423901 -71.071999,50.404400 C-69.908997,51.023899 -68.959999,51.656399 -68.961998,51.810398 C-68.967300,52.204102 -80.552002,62.390400 -81.092003,62.490398 C-81.339897,62.532902 -82.420998,61.937599 -83.495003,61.167400 C-83.495003,61.167400 -83.495003,61.162800 -83.495003,61.162800 ZM-122.904999,56.878799C-122.904999,56.878799 -124.316002,55.449799 -124.316002,55.449799 C-124.316002,55.449799 -123.689697,55.043900 -123.689697,55.043900 C-123.345200,54.820702 -116.352699,51.006901 -108.149696,46.567902 C-108.149696,46.567902 -93.239700,38.497898 -93.239700,38.497898 C-93.239700,38.497898 -91.813698,39.197201 -91.813698,39.197201 C-91.029404,39.581799 -90.387703,40.026798 -90.387703,40.186001 C-90.387703,40.403900 -121.047699,58.306000 -121.417702,58.306000 C-121.458397,58.306000 -122.126701,57.662998 -122.902702,56.876999 C-122.902702,56.876999 -122.904999,56.878799 -122.904999,56.878799 ZM-99.974998,49.674801C-100.666199,49.155998 -101.231003,48.593800 -101.230003,48.425800 C-101.229210,48.257801 -98.433998,46.474800 -95.018997,44.462799 C-95.018997,44.462799 -88.809998,40.805801 -88.809998,40.805801 C-88.809998,40.805801 -87.216003,41.655499 -87.216003,41.655499 C-86.339203,42.122898 -85.622002,42.595501 -85.622002,42.705502 C-85.622002,43.019199 -97.802002,50.634499 -98.281998,50.625500 C-98.520699,50.621498 -99.281601,50.193001 -99.973000,49.674099 C-99.973000,49.674099 -99.974998,49.674801 -99.974998,49.674801 ZM-87.535004,48.092800C-88.371696,47.575699 -89.054001,47.013802 -89.051003,46.842800 C-89.045998,46.554401 -84.817001,43.721802 -84.123001,43.541801 C-83.804001,43.459190 -80.958000,44.960800 -80.727997,45.332802 C-80.658699,45.445000 -80.807503,45.719799 -81.058701,45.943501 C-81.917999,46.708500 -85.445702,49.047501 -85.729698,49.040501 C-85.885696,49.036598 -86.697899,48.610298 -87.534698,48.093201 C-87.534698,48.093201 -87.535004,48.092800 -87.535004,48.092800 Z" transform="matrix(3.779527426,0,0,3.779527426,980.752860132,302.020825767)" fill="#50abf1"/>
				</g>
			</g>
		</g>
		<g transform="matrix(0.148078696,0,0,0.156589457,514.121257248,437.28554983)">
			<g>
				<g>
					<g transform="matrix(1.27513202,0,0,1.282907511,-181.885326153,-434.576224612)">
						<g>
							<path d="M47.863998,86.749001C47.863998,86.749001 145.876007,123.945999 145.876007,123.945999 C145.876007,123.945999 54.360001,202.201004 54.360001,202.201004 C48.355000,207.324997 46.950001,216.235992 51.387001,223.014008 C56.201000,230.367996 66.067001,232.427002 73.419998,227.613007 C73.419998,227.613007 148.451004,178.490005 148.451004,178.490005 C148.451004,178.490005 134.783005,220.190002 133.686005,223.003998 C128.667007,235.875000 135.033005,250.378006 147.904999,255.397003 C147.904999,255.397003 239.378998,291.062988 239.378998,291.062988 C239.378998,291.062988 294.923004,360.623993 294.923004,360.623993 C301.563995,368.919006 313.657013,370.553986 322.250000,364.161011 C331.035004,357.626007 332.859009,345.205994 326.324005,336.420990 C326.324005,336.420990 275.683990,268.348999 275.683990,268.348999 C275.683990,268.348999 291.265015,270.192993 291.265015,270.192993 C291.265015,270.192993 361.242004,311.410004 361.242004,311.410004 C370.375000,316.773010 382.226990,314.023010 387.994995,305.028992 C393.906006,295.809998 391.222992,283.549011 382.006012,277.638000 C382.006012,277.638000 309.513000,231.158997 309.513000,231.158997 C307.470001,229.862000 305.066010,228.873993 302.539001,228.414993 C302.539001,228.414993 301.455994,228.218002 301.455994,228.218002 C301.455994,228.218002 231.593002,215.533997 231.593002,215.533997 C231.593002,215.533997 264.123993,119.524002 226.307007,102.018997 C226.307007,102.018997 60.919998,49.314999 60.919998,49.314999 C50.964001,46.165001 40.110001,51.289001 36.359001,61.173000 C32.473000,71.413002 37.624001,82.862999 47.863998,86.749001 C47.863998,86.749001 47.863998,86.749001 47.863998,86.749001 Z" transform="matrix(1.81755805,0,0,1.81755805,355.611595926,199.871867713)" fill="#eb6e93"/>
							<path d="M225.335999,94.430000C230.727005,98.056999 236.830994,100.569000 243.203995,101.814003 C243.203995,101.814003 243.266998,101.827003 243.266998,101.827003 C259.057007,104.889999 275.662994,99.806999 287.049988,88.448997 C298.598999,76.921997 303.670013,59.877998 300.303986,43.908001 C297.027008,28.353001 286.029999,15.037000 271.346008,8.929000 C256.321014,2.678000 238.800995,4.412000 225.307007,13.507000 C211.811005,22.601000 203.632004,38.188999 203.783997,54.464001 C203.938004,70.364998 212.151993,85.555000 225.335999,94.430000 C225.335999,94.430000 225.335999,94.430000 225.335999,94.430000 Z" transform="matrix(1.81755805,0,0,1.81755805,355.611595926,199.871867713)" fill="#eb6e93"/>
							<path d="" transform="matrix(1.81755805,0,0,1.81755805,355.611595926,199.871867713)" fill="#000000"/>
						</g>
					</g>
				</g>
			</g>
		</g>
		<path d="M628.119197,621.406184C628.119197,621.406184 616.183582,609.315116 616.183582,609.315116 C616.183582,609.315116 620.484548,605.069447 620.484548,605.069447 Q621.875020,603.696851 623.242891,603.165078 Q624.610761,602.633305 625.959902,603.006740 Q627.309043,603.380175 628.639012,604.727466 Q629.986031,606.092029 630.367610,607.463218 Q630.749188,608.834407 630.221185,610.199711 Q629.693181,611.565015 628.328618,612.912035 Q626.186772,615.026343 626.186772,615.026343 C626.186772,615.026343 630.330135,619.223671 630.330135,619.223671 C630.330135,619.223671 628.119197,621.406184 628.119197,621.406184 C628.119197,621.406184 628.119197,621.406184 628.119197,621.406184 ZM624.362328,613.178137C624.362328,613.178137 626.245080,611.319592 626.245080,611.319592 Q627.376458,610.202759 627.439147,609.134791 Q627.501835,608.066822 626.427630,606.978626 Q625.353424,605.890430 624.284623,605.956456 Q623.215822,606.022482 622.049897,607.173416 Q620.218964,608.980809 620.218964,608.980809 C620.218964,608.980809 624.362328,613.178137 624.362328,613.178137 C624.362328,613.178137 624.362328,613.178137 624.362328,613.178137 ZM639.897131,610.120723Q639.206213,610.802758 638.333552,611.058842 Q637.460892,611.314926 636.552865,611.068774 Q635.644838,610.822623 634.834921,610.002157 Q634.110259,609.268057 633.935610,608.408795 Q633.760962,607.549533 633.972735,606.649865 Q634.184507,605.750197 634.636213,604.903569 Q635.087920,604.056941 635.628921,603.335320 Q636.169922,602.613699 636.636514,602.119001 Q635.868780,601.410366 635.190829,601.414561 Q634.512878,601.418756 633.683776,602.237198 Q633.105132,602.808403 632.714436,603.509543 Q632.323741,604.210683 631.965315,605.229541 Q630.053173,603.672532 630.053173,603.672532 Q630.455337,602.525238 631.049379,601.563683 Q631.643420,600.602128 632.446612,599.809262 Q633.413898,598.854413 634.454470,598.509311 Q635.495042,598.164210 636.629549,598.553419 Q637.764055,598.942628 639.000244,600.194917 Q641.302113,602.526766 641.302113,602.526766 Q641.941520,603.174502 642.287578,603.404146 Q642.633636,603.633790 642.874458,603.549535 Q643.115280,603.465279 643.426193,603.158364 Q643.702560,602.885550 643.702560,602.885550 C643.702560,602.885550 645.251747,604.834951 645.251747,604.834951 C645.251747,604.834951 644.474464,605.602240 644.474464,605.602240 Q643.990822,606.079665 643.491516,606.325292 Q642.992210,606.570920 642.502818,606.610660 Q642.013426,606.650401 641.550942,606.510107 Q641.596654,607.402860 641.135534,608.378147 Q640.674414,609.353433 639.897131,610.120723 Q639.897131,610.120723 639.897131,610.120723 ZM639.175491,607.593147Q639.460495,607.311807 639.734487,606.742922 Q640.008480,606.174037 640.029861,605.521996 Q638.086061,603.552879 638.086061,603.552879 Q637.507084,604.175569 637.073039,604.945079 Q636.638994,605.714590 636.565572,606.452108 Q636.492150,607.189626 636.995151,607.699178 Q637.515203,608.226003 638.043070,608.207965 Q638.570938,608.189927 639.175491,607.593147 Q639.175491,607.593147 639.175491,607.593147 ZM646.463075,603.298151C646.463075,603.298151 637.937635,594.661673 637.937635,594.661673 C637.937635,594.661673 639.941298,592.683772 639.941298,592.683772 C639.941298,592.683772 640.896814,593.548085 640.896814,593.548085 Q640.866931,592.861387 641.104780,591.910399 Q641.342628,590.959412 642.050819,590.260326 Q642.258095,590.055715 642.464926,589.919753 Q644.389677,592.180511 644.389677,592.180511 Q644.148522,592.316252 643.945787,592.482276 Q643.743051,592.648300 643.561685,592.827334 Q643.017587,593.364437 642.815728,594.058217 Q642.613869,594.751998 642.790572,595.293764 Q648.604921,601.183842 648.604921,601.183842 C648.604921,601.183842 646.463075,603.298151 646.463075,603.298151 C646.463075,603.298151 646.463075,603.298151 646.463075,603.298151 ZM661.868627,596.343982C661.868627,596.343982 656.344142,590.747545 656.344142,590.747545 C656.344142,590.747545 657.289047,590.599195 657.289047,590.599195 Q657.298991,591.714830 656.945217,592.677940 Q656.591442,593.641049 655.632793,594.587373 Q654.337321,595.866188 652.846776,596.126856 Q651.356231,596.387524 649.896814,595.816005 Q648.437397,595.244486 647.243836,594.035379 Q646.050274,592.826273 645.497688,591.359583 Q644.945101,589.892893 645.225034,588.405845 Q645.504966,586.918798 646.800438,585.639982 Q647.802269,584.651031 648.859837,584.331784 Q649.917404,584.012536 651.049536,584.105674 Q650.632098,584.961105 650.632098,584.961105 C650.632098,584.961105 649.717791,583.032974 649.717791,583.032974 C649.717791,583.032974 651.358721,581.413141 651.358721,581.413141 C651.358721,581.413141 664.010473,594.229673 664.010473,594.229673 C664.010473,594.229673 661.868627,596.343982 661.868627,596.343982 C661.868627,596.343982 661.868627,596.343982 661.868627,596.343982 ZM654.239062,592.484514Q654.947254,591.785428 655.055333,590.996646 Q655.163412,590.207864 654.778281,589.385856 Q654.393149,588.563848 653.600283,587.760656 Q652.406722,586.551549 651.177047,586.281863 Q649.947373,586.012177 648.885087,587.060806 Q647.874619,588.058282 648.059279,589.359547 Q648.243940,590.660811 649.437501,591.869918 Q650.622537,593.070388 651.925566,593.276189 Q653.228595,593.481990 654.239062,592.484514 Q654.239062,592.484514 654.239062,592.484514 ZM665.979293,584.373896Q664.571547,585.763543 662.973046,586.130779 Q661.374545,586.498014 659.846036,585.994699 Q658.317527,585.491384 657.123966,584.282277 Q655.921879,583.064534 655.429859,581.521004 Q654.937838,579.977474 655.321464,578.379540 Q655.705090,576.781606 657.112836,575.391960 Q658.520582,574.002313 660.123346,573.639396 Q661.726109,573.276478 663.263144,573.788430 Q664.800178,574.300382 666.002265,575.518125 Q667.195826,576.727232 667.679321,578.262125 Q668.162816,579.797019 667.774927,581.390634 Q667.387039,582.984250 665.979293,584.373896 Q665.979293,584.373896 665.979293,584.373896 ZM664.240103,582.612055Q665.319663,581.546375 665.156649,580.215216 Q664.993635,578.884057 663.808599,577.683587 Q662.606512,576.465843 661.269049,576.276982 Q659.931585,576.088121 658.852026,577.153801 Q657.781102,578.210956 657.948323,579.555014 Q658.115544,580.899072 659.317631,582.116815 Q660.502667,583.317286 661.835924,583.493247 Q663.169180,583.669209 664.240103,582.612055 Q664.240103,582.612055 664.240103,582.612055 ZM675.479418,574.995913Q674.132127,576.325882 672.800358,576.583286 Q671.468588,576.840690 670.189482,576.253175 Q668.910377,575.665661 667.708290,574.447917 Q663.121603,569.801492 663.121603,569.801492 C663.121603,569.801492 665.263450,567.687183 665.263450,567.687183 C665.263450,567.687183 669.850136,572.333608 669.850136,572.333608 Q671.035172,573.534079 672.012236,573.720608 Q672.989299,573.907137 673.896129,573.011966 Q674.621593,572.295829 674.759900,571.477208 Q674.898207,570.658587 674.603925,569.721320 Q675.298125,571.184635 675.298125,571.184635 C675.298125,571.184635 668.597130,564.396364 668.597130,564.396364 C668.597130,564.396364 670.738976,562.282055 670.738976,562.282055 C670.738976,562.282055 679.264416,570.918532 679.264416,570.918532 C679.264416,570.918532 677.260753,572.896434 677.260753,572.896434 C677.260753,572.896434 675.673689,571.495992 675.673689,571.495992 C675.673689,571.495992 676.736839,571.640172 676.736839,571.640172 Q676.818096,572.344366 676.481262,573.341910 Q676.144427,574.339454 675.479418,574.995913 Q675.479418,574.995913 675.479418,574.995913 ZM681.268079,568.940630C681.268079,568.940630 672.742639,560.304153 672.742639,560.304153 C672.742639,560.304153 674.746302,558.326251 674.746302,558.326251 C674.746302,558.326251 675.701817,559.190565 675.701817,559.190565 Q675.671935,558.503866 675.909784,557.552879 Q676.147632,556.601892 676.855823,555.902806 Q677.063099,555.698195 677.269930,555.562232 Q679.194681,557.822991 679.194681,557.822991 Q678.953525,557.958731 678.750790,558.124755 Q678.548055,558.290779 678.366689,558.469814 Q677.822591,559.006916 677.620732,559.700697 Q677.418873,560.394478 677.595575,560.936244 Q683.409925,566.826321 683.409925,566.826321 C683.409925,566.826321 681.268079,568.940630 681.268079,568.940630 C681.268079,568.940630 681.268079,568.940630 681.268079,568.940630 Z" transform="" fill="#eb6e93"/>
		<path d="" transform="" fill="#eb6e93"/>
		<path d="" transform="matrix(1,0,0,1,0,0)" fill="#eb6e93"/>
		<path d="" transform="" fill="#eb6e93"/>
		<path d="" transform="" fill="#eb6e93"/>
		<path d="" transform="matrix(1,0,0,1,0,0)" fill="#eb6e93"/>
	</g>
</g></g></svg>