<svg xmlns="http://www.w3.org/2000/svg" viewbox="0 0 233 219" width="233" height="219"><defs></defs><g transform="matrix(1,0,0,1,-474.897121519,-418.293878688)">
<g transform="matrix(1,0,0,1,-36,7)">
	<g>
		<path d="" transform="" fill="#ffffff" stroke="#000000" stroke-width="2"/>
		<path d="" transform="" fill="#ffffff" stroke="#000000" stroke-width="2"/>
		<g>
			<g>
				<g>
					<path d="M-96.129997,84.470001C-98.582001,81.853996 -98.654999,81.740997 -98.213997,81.246002 C-97.515404,80.461998 -67.713997,53.186001 -67.293999,52.936001 C-66.923897,52.722301 -63.271000,54.486000 -62.472000,55.264000 C-62.166000,55.562199 -64.540001,58.099998 -77.491997,71.314003 C-85.953003,79.948997 -93.042000,87.054001 -93.232002,87.094002 C-93.428596,87.137497 -94.733002,85.953003 -96.129997,84.461998 C-96.129997,84.461998 -96.129997,84.470001 -96.129997,84.470001 ZM-102.813004,77.518700C-104.135002,76.189697 -104.971001,75.145699 -104.887001,74.928703 C-104.736298,74.536003 -87.607002,60.688702 -87.287003,60.698700 C-86.892197,60.713501 -82.861000,63.776699 -82.861000,64.061699 C-82.861000,64.361801 -100.081001,79.741699 -100.420998,79.741699 C-100.521202,79.741699 -101.598999,78.739700 -102.817001,77.515701 C-102.817001,77.515701 -102.813004,77.518700 -102.813004,77.518700 ZM-109.052002,71.129097C-110.086998,69.973099 -110.737000,69.039101 -110.597000,68.909103 C-109.875099,68.235199 -102.427002,63.070099 -102.181000,63.073101 C-101.780602,63.078098 -98.185997,66.160103 -98.185997,66.499100 C-98.185997,66.915298 -106.251999,73.124100 -106.792999,73.124100 C-107.053497,73.124100 -108.070000,72.226303 -109.052002,71.129097 C-109.052002,71.129097 -109.052002,71.129097 -109.052002,71.129097 ZM-114.184998,65.861099C-115.667000,64.362099 -115.844002,64.082100 -115.508003,63.770100 C-115.025703,63.321999 -91.348000,48.040100 -90.867996,47.860100 C-90.489197,47.722599 -87.209999,49.708099 -87.209999,50.075100 C-87.209999,50.337299 -111.480003,67.335098 -112.070000,67.485100 C-112.304604,67.545303 -113.192001,66.862900 -114.184998,65.858101 C-114.184998,65.858101 -114.184998,65.861099 -114.184998,65.861099 ZM-98.394997,63.447102C-99.372498,62.635700 -100.167000,61.832100 -100.161003,61.661098 C-100.154999,61.490200 -99.291298,60.747501 -98.242996,60.010101 C-97.194000,59.273201 -92.492996,55.910099 -87.792999,52.536098 C-83.096001,49.162102 -79.058998,46.401100 -78.822998,46.401100 C-78.190804,46.401100 -74.989998,48.251099 -75.093002,48.558102 C-75.241402,49.003300 -95.782997,64.918098 -96.212997,64.918098 C-96.435997,64.920097 -97.417999,64.257599 -98.396004,63.446098 C-98.396004,63.446098 -98.394997,63.447102 -98.394997,63.447102 ZM-118.955002,61.064098C-120.122002,59.830101 -120.291000,59.532101 -119.986000,59.254101 C-119.721603,59.013100 -105.056000,50.350101 -103.286003,49.388100 C-102.992996,49.229099 -99.884003,51.472099 -99.983002,51.770100 C-100.111603,52.155998 -116.653000,62.540100 -117.142998,62.540100 C-117.376602,62.540310 -118.195999,61.875999 -118.963997,61.064098 C-118.963997,61.064098 -118.955002,61.064098 -118.955002,61.064098 ZM-83.495003,61.162800C-84.568001,60.392700 -85.487999,59.637798 -85.539001,59.485802 C-85.611198,59.268600 -75.882004,51.182800 -73.679001,49.625801 C-73.249901,49.323101 -72.912399,49.423901 -71.071999,50.404400 C-69.908997,51.023899 -68.959999,51.656399 -68.961998,51.810398 C-68.967300,52.204102 -80.552002,62.390400 -81.092003,62.490398 C-81.339897,62.532902 -82.420998,61.937599 -83.495003,61.167400 C-83.495003,61.167400 -83.495003,61.162800 -83.495003,61.162800 ZM-122.904999,56.878799C-122.904999,56.878799 -124.316002,55.449799 -124.316002,55.449799 C-124.316002,55.449799 -123.689697,55.043900 -123.689697,55.043900 C-123.345200,54.820702 -116.352699,51.006901 -108.149696,46.567902 C-108.149696,46.567902 -93.239700,38.497898 -93.239700,38.497898 C-93.239700,38.497898 -91.813698,39.197201 -91.813698,39.197201 C-91.029404,39.581799 -90.387703,40.026798 -90.387703,40.186001 C-90.387703,40.403900 -121.047699,58.306000 -121.417702,58.306000 C-121.458397,58.306000 -122.126701,57.662998 -122.902702,56.876999 C-122.902702,56.876999 -122.904999,56.878799 -122.904999,56.878799 ZM-99.974998,49.674801C-100.666199,49.155998 -101.231003,48.593800 -101.230003,48.425800 C-101.229210,48.257801 -98.433998,46.474800 -95.018997,44.462799 C-95.018997,44.462799 -88.809998,40.805801 -88.809998,40.805801 C-88.809998,40.805801 -87.216003,41.655499 -87.216003,41.655499 C-86.339203,42.122898 -85.622002,42.595501 -85.622002,42.705502 C-85.622002,43.019199 -97.802002,50.634499 -98.281998,50.625500 C-98.520699,50.621498 -99.281601,50.193001 -99.973000,49.674099 C-99.973000,49.674099 -99.974998,49.674801 -99.974998,49.674801 ZM-87.535004,48.092800C-88.371696,47.575699 -89.054001,47.013802 -89.051003,46.842800 C-89.045998,46.554401 -84.817001,43.721802 -84.123001,43.541801 C-83.804001,43.459190 -80.958000,44.960800 -80.727997,45.332802 C-80.658699,45.445000 -80.807503,45.719799 -81.058701,45.943501 C-81.917999,46.708500 -85.445702,49.047501 -85.729698,49.040501 C-85.885696,49.036598 -86.697899,48.610298 -87.534698,48.093201 C-87.534698,48.093201 -87.535004,48.092800 -87.535004,48.092800 Z" transform="matrix(3.779527426,0,0,3.779527426,980.752860132,302.020825767)" fill="#50abf1"/>
				</g>
			</g>
		</g>
		<g transform="matrix(0.148078696,0,0,0.156589457,514.121257248,437.28554983)">
			<g>
				<g>
					<g transform="matrix(1.27513202,0,0,1.282907511,-181.885326153,-434.576224612)">
						<g>
							<path d="M47.863998,86.749001C47.863998,86.749001 145.876007,123.945999 145.876007,123.945999 C145.876007,123.945999 54.360001,202.201004 54.360001,202.201004 C48.355000,207.324997 46.950001,216.235992 51.387001,223.014008 C56.201000,230.367996 66.067001,232.427002 73.419998,227.613007 C73.419998,227.613007 148.451004,178.490005 148.451004,178.490005 C148.451004,178.490005 134.783005,220.190002 133.686005,223.003998 C128.667007,235.875000 135.033005,250.378006 147.904999,255.397003 C147.904999,255.397003 239.378998,291.062988 239.378998,291.062988 C239.378998,291.062988 294.923004,360.623993 294.923004,360.623993 C301.563995,368.919006 313.657013,370.553986 322.250000,364.161011 C331.035004,357.626007 332.859009,345.205994 326.324005,336.420990 C326.324005,336.420990 275.683990,268.348999 275.683990,268.348999 C275.683990,268.348999 291.265015,270.192993 291.265015,270.192993 C291.265015,270.192993 361.242004,311.410004 361.242004,311.410004 C370.375000,316.773010 382.226990,314.023010 387.994995,305.028992 C393.906006,295.809998 391.222992,283.549011 382.006012,277.638000 C382.006012,277.638000 309.513000,231.158997 309.513000,231.158997 C307.470001,229.862000 305.066010,228.873993 302.539001,228.414993 C302.539001,228.414993 301.455994,228.218002 301.455994,228.218002 C301.455994,228.218002 231.593002,215.533997 231.593002,215.533997 C231.593002,215.533997 264.123993,119.524002 226.307007,102.018997 C226.307007,102.018997 60.919998,49.314999 60.919998,49.314999 C50.964001,46.165001 40.110001,51.289001 36.359001,61.173000 C32.473000,71.413002 37.624001,82.862999 47.863998,86.749001 C47.863998,86.749001 47.863998,86.749001 47.863998,86.749001 Z" transform="matrix(1.81755805,0,0,1.81755805,355.611595926,199.871867713)" fill="#eb6e93"/>
							<path d="M225.335999,94.430000C230.727005,98.056999 236.830994,100.569000 243.203995,101.814003 C243.203995,101.814003 243.266998,101.827003 243.266998,101.827003 C259.057007,104.889999 275.662994,99.806999 287.049988,88.448997 C298.598999,76.921997 303.670013,59.877998 300.303986,43.908001 C297.027008,28.353001 286.029999,15.037000 271.346008,8.929000 C256.321014,2.678000 238.800995,4.412000 225.307007,13.507000 C211.811005,22.601000 203.632004,38.188999 203.783997,54.464001 C203.938004,70.364998 212.151993,85.555000 225.335999,94.430000 C225.335999,94.430000 225.335999,94.430000 225.335999,94.430000 Z" transform="matrix(1.81755805,0,0,1.81755805,355.611595926,199.871867713)" fill="#eb6e93"/>
							<path d="" transform="matrix(1.81755805,0,0,1.81755805,355.611595926,199.871867713)" fill="#000000"/>
						</g>
					</g>
				</g>
			</g>
		</g>
	</g>
</g></g></svg>